<?xml version="1.0" standalone="no"?>
<!DOCTYPE svg PUBLIC "-//W3C//DTD SVG 20010904//EN"
 "http://www.w3.org/TR/2001/REC-SVG-20010904/DTD/svg10.dtd">
<svg version="1.0" xmlns="http://www.w3.org/2000/svg"
 width="260.000000pt" height="260.000000pt" viewBox="0 0 260.000000 260.000000"
 preserveAspectRatio="xMidYMid meet">
<metadata>
Created by potrace 1.14, written by Peter Selinger 2001-2017
</metadata>
<g transform="translate(0.000000,260.000000) scale(0.100000,-0.100000)"
fill="#000000" stroke="none">
<path d="M2393 2587 c-3 -6 -2 -7 4 -4 6 4 15 -5 22 -19 7 -16 16 -22 24 -18
6 4 8 3 4 -1 -10 -12 -39 -16 -32 -5 3 5 -5 14 -17 20 -21 10 -21 10 -6 -3 10
-8 15 -17 11 -20 -3 -4 2 -10 11 -13 14 -5 15 -9 4 -15 -19 -13 -36 -11 -18 2
13 9 13 10 0 6 -8 -2 -15 -9 -15 -14 0 -6 -3 -15 -7 -19 -17 -17 -7 -26 11
-10 14 13 21 14 27 5 4 -7 3 -10 -3 -6 -6 4 -16 0 -23 -8 -7 -8 -16 -12 -22
-9 -5 3 -17 0 -26 -7 -12 -10 -12 -8 2 9 19 22 19 22 1 16 -14 -6 -16 -4 -10
6 5 9 4 11 -4 6 -6 -4 -9 -11 -6 -16 7 -11 -24 -22 -37 -13 -7 4 -8 1 -4 -6 5
-7 14 -10 22 -7 8 3 13 0 11 -7 -1 -7 4 -11 11 -9 8 1 11 -2 7 -8 -5 -7 -11
-8 -19 -1 -6 6 -21 9 -32 9 -16 -2 -20 -7 -16 -23 3 -11 10 -26 15 -33 8 -10
7 -12 -4 -10 -9 2 -13 -4 -11 -17 2 -18 2 -19 -8 -2 -9 14 -15 15 -31 6 -16
-8 -18 -14 -9 -24 8 -10 8 -15 -1 -21 -7 -4 -9 -3 -5 4 9 15 -26 33 -45 22 -7
-5 -15 -14 -15 -20 -3 -23 -5 -24 -15 -10 -9 12 -10 12 -5 -4 4 -10 2 -24 -4
-31 -8 -10 -5 -19 12 -35 23 -22 23 -22 1 -11 -17 9 -24 8 -30 -3 -4 -8 -12
-16 -18 -18 -5 -2 -9 -7 -7 -11 1 -5 -2 -6 -8 -2 -5 3 -10 1 -10 -6 0 -7 -3
-9 -7 -5 -5 5 7 21 25 36 24 20 30 30 21 35 -8 6 -10 4 -4 -5 6 -10 4 -12 -8
-7 -9 3 -16 2 -14 -3 1 -5 -6 -15 -16 -22 -10 -7 -19 -22 -21 -33 -1 -10 -9
-21 -17 -23 -11 -3 -12 -2 -1 6 11 8 11 10 0 15 -8 3 -15 0 -16 -6 -1 -10 -7
-41 -12 -57 -1 -3 -5 4 -9 14 -7 19 -8 19 -13 -2 -4 -12 -2 -20 3 -16 5 3 9 0
9 -7 0 -8 4 -8 15 1 9 7 13 20 10 29 -3 8 -3 12 1 9 4 -4 16 -2 28 4 13 7 9
-1 -14 -25 -18 -20 -36 -34 -39 -32 -7 7 -31 -16 -26 -25 6 -10 -15 -7 -33 4
-7 4 -11 15 -8 23 3 8 2 12 -3 9 -5 -3 -8 -17 -8 -31 0 -13 3 -22 8 -20 4 3
10 1 13 -3 8 -13 -47 -10 -56 3 -4 5 -6 0 -5 -12 0 -12 4 -20 7 -18 3 1 11 -3
18 -11 11 -12 10 -14 -5 -11 -10 1 -24 6 -30 10 -7 5 -13 4 -13 -1 0 -5 10
-14 23 -20 20 -10 20 -11 2 -9 -11 2 -26 7 -34 11 -11 7 -12 6 -5 -5 14 -23
13 -39 -2 -39 -10 0 -12 -5 -8 -12 6 -10 3 -9 -8 0 -9 8 -14 20 -11 28 3 8 0
14 -7 14 -6 0 -8 -4 -5 -10 3 -5 1 -10 -5 -10 -7 0 -5 -7 4 -16 18 -17 21 -28
6 -19 -5 3 -10 1 -10 -4 0 -6 -5 -11 -11 -11 -8 0 -8 4 0 14 9 10 8 15 -3 19
-10 4 -13 1 -9 -9 3 -8 -1 -14 -8 -14 -11 0 -11 -2 0 -9 19 -12 22 -51 4 -44
-10 4 -11 9 -3 18 10 12 2 14 -28 6 -1 -1 3 -11 9 -23 11 -20 10 -21 -3 -10
-13 10 -15 9 -13 -12 2 -14 -3 -30 -11 -37 -11 -9 -14 -9 -14 0 0 7 -5 9 -10
6 -6 -4 -7 -11 -4 -17 4 -7 2 -8 -5 -4 -6 4 -18 3 -26 -4 -10 -9 -19 -8 -37 1
l-23 11 23 -21 c25 -24 30 -40 7 -21 -13 11 -14 10 -9 -4 4 -11 2 -16 -7 -14
-8 2 -13 -1 -13 -7 1 -5 -7 -19 -19 -30 -11 -11 -17 -15 -14 -9 4 7 1 14 -6
17 -10 4 -13 -2 -9 -19 2 -14 0 -24 -7 -24 -6 0 -10 3 -10 8 3 19 -2 32 -12
32 -8 0 -8 -5 1 -15 11 -14 7 -19 -12 -16 -3 0 -5 -13 -3 -28 3 -21 -4 -37
-23 -58 -15 -15 -25 -32 -24 -38 2 -5 -2 -4 -9 3 -17 16 -30 15 -23 -1 5 -15
-22 -17 -45 -2 -9 5 -12 4 -7 -3 3 -6 2 -13 -4 -17 -6 -4 -8 -10 -5 -15 3 -5
-5 -16 -17 -24 -12 -9 -18 -16 -14 -16 5 0 17 6 25 14 14 13 16 12 17 -12 1
-15 -1 -21 -3 -15 -3 9 -10 10 -22 3 -10 -5 -22 -6 -26 -2 -5 4 -5 1 -1 -6 4
-7 11 -10 16 -7 5 3 12 0 16 -6 4 -7 3 -9 -4 -5 -6 3 -15 -2 -21 -11 -5 -10
-13 -14 -17 -10 -5 5 -3 12 5 16 10 6 9 10 -4 15 -18 7 -51 -19 -36 -28 5 -4
12 0 14 6 4 9 6 10 6 1 2 -22 -22 -26 -37 -7 -13 18 -14 18 -7 -6 7 -21 6 -23
-7 -12 -12 10 -15 8 -14 -11 1 -12 4 -26 7 -32 3 -5 5 -19 5 -30 -1 -16 -7
-19 -28 -17 -15 2 -36 -2 -48 -8 -18 -10 -19 -14 -8 -28 12 -15 11 -16 -4 -3
-10 7 -16 17 -13 21 3 5 -5 16 -17 24 -18 13 -19 16 -5 16 9 0 17 4 17 9 0 11
-33 9 -41 -2 -3 -5 -9 -1 -12 8 -4 9 -3 13 3 10 6 -3 10 -2 10 4 0 6 6 9 12 7
7 -1 10 -1 5 1 -4 3 -4 9 -1 15 4 6 -2 6 -14 -1 -26 -14 -43 -14 -19 0 13 8
15 14 7 30 -9 15 -15 17 -30 9 -29 -15 -34 -12 -13 8 10 9 13 13 6 8 -8 -5
-17 -6 -20 -2 -4 4 -1 11 6 15 9 6 10 11 2 15 -6 4 -11 2 -11 -5 0 -8 -3 -9
-13 0 -8 6 -17 7 -22 3 -4 -4 -6 5 -3 19 4 23 2 25 -28 24 -18 0 -30 3 -27 8
2 4 13 7 23 5 11 -2 19 2 19 7 0 6 -9 9 -20 9 -11 -1 -18 4 -16 10 3 6 11 9
18 8 8 -2 10 0 6 5 -12 11 -51 11 -59 -1 -4 -6 -10 -7 -14 -3 -4 3 -1 14 7 24
13 15 12 16 -6 9 -24 -10 -68 -15 -60 -8 2 3 -1 12 -8 20 -9 12 -5 11 15 -2
l27 -18 -2 35 c-2 35 -19 44 -47 24 -12 -9 -13 -9 -2 3 18 21 15 44 -11 59
-20 13 -21 13 -9 -1 7 -9 9 -18 5 -20 -4 -3 -3 -3 4 -2 7 2 10 -3 6 -12 -5
-13 -8 -12 -25 3 -11 10 -23 17 -27 17 -3 -1 -12 1 -19 3 -9 4 -8 9 5 18 10 8
15 17 10 21 -4 4 -7 1 -7 -7 0 -8 -6 -4 -16 9 -8 12 -20 19 -26 16 -7 -5 -8
-2 -3 6 5 9 1 10 -16 6 -17 -5 -13 0 11 14 l35 21 -40 -5 c-32 -5 -35 -4 -17
4 13 6 20 15 17 21 -5 7 -11 7 -17 1 -7 -7 -19 -7 -33 -2 -13 5 -26 6 -29 3
-3 -4 -6 -1 -6 6 0 7 -5 9 -12 5 -6 -4 -8 -3 -4 4 4 8 17 7 41 -4 21 -8 35
-10 35 -4 0 5 -8 10 -17 10 -10 0 -26 7 -36 14 -19 15 -24 31 -5 20 6 -4 3 5
-8 19 -10 15 -23 27 -28 27 -5 0 -3 -6 3 -14 9 -10 9 -16 1 -21 -6 -4 -14 -4
-17 -1 -4 3 -1 6 6 6 7 0 9 5 6 10 -4 6 -10 8 -14 6 -4 -3 -8 5 -8 17 -2 17 0
18 7 7 7 -11 9 -10 7 8 -1 23 -12 29 -22 12 -5 -8 -11 -8 -19 -1 -7 6 -16 8
-19 4 -4 -3 -9 2 -13 11 -3 9 -10 13 -15 10 -5 -3 -10 0 -10 5 -1 6 -2 17 -3
24 -1 6 -9 11 -18 11 -9 -1 -15 5 -13 15 1 9 10 15 21 13 14 -2 16 -1 5 6 -11
8 -11 11 0 16 8 3 3 3 -10 0 -18 -5 -22 -3 -15 7 6 11 4 11 -10 0 -16 -13 -18
-13 -16 0 4 26 0 40 -9 35 -5 -4 -12 0 -14 6 -4 10 -6 10 -6 0 -1 -7 -6 -10
-13 -6 -7 5 -9 2 -6 -8 4 -8 1 -15 -7 -15 -8 0 -11 7 -7 15 3 9 1 13 -5 9 -5
-3 -10 0 -10 8 0 8 4 12 9 9 4 -3 8 0 8 7 0 6 -8 9 -20 6 -10 -3 -19 -2 -18 2
0 3 -1 8 -2 11 -7 19 -7 39 1 34 5 -3 6 -10 3 -16 -5 -7 -2 -8 6 -3 9 6 11 4
5 -6 -7 -12 -6 -12 6 -1 12 11 11 15 -3 23 -9 5 -24 16 -32 24 -17 17 -30 20
-21 5 3 -5 1 -10 -4 -10 -17 0 -13 18 6 29 17 9 11 10 -60 2 -5 -1 -5 -6 -1
-13 4 -6 3 -8 -4 -4 -6 3 -13 2 -17 -4 -3 -5 -11 -10 -18 -10 -6 0 -3 6 6 13
13 9 14 16 6 27 -9 13 -10 12 -5 -2 4 -13 0 -18 -13 -18 -11 0 -21 5 -23 12
-3 8 -7 6 -11 -5 -4 -10 -2 -16 5 -14 6 1 13 -5 15 -13 4 -13 3 -13 -6 0 -6 8
-11 11 -11 6 0 -5 -6 -3 -13 3 -14 11 -27 5 -27 -11 0 -5 5 -6 12 -2 7 4 8 3
4 -5 -10 -15 -29 -3 -22 15 3 8 -1 14 -9 14 -13 0 -15 -140 -15 -1105 l0
-1105 1235 0 1235 0 0 1301 0 1300 -70 -2 c-39 -1 -73 -7 -77 -12z m51 -13 c3
-8 2 -12 -4 -9 -6 3 -10 10 -10 16 0 14 7 11 14 -7z m-143 -169 c5 4 6 -1 2
-10 -5 -13 -7 -14 -14 -3 -5 7 -8 18 -8 23 0 6 3 4 6 -3 2 -6 9 -10 14 -7z
m-107 -92 c4 -10 4 -14 0 -11 -3 4 -14 0 -23 -9 -12 -13 -13 -17 -3 -21 10 -3
8 -8 -5 -17 -28 -21 -35 -7 -13 24 10 16 16 32 12 36 -4 5 -1 5 6 1 6 -4 12
-2 12 3 0 16 7 13 14 -6z m-1941 -110 c-3 -7 -8 -13 -12 -13 -4 0 -8 6 -8 13
0 8 6 14 13 14 7 0 10 -6 7 -14z m149 -131 c-7 -2 -10 -7 -8 -11 3 -4 -1 -8
-9 -8 -10 0 -12 4 -5 12 5 7 7 15 3 19 -4 4 1 4 12 0 11 -5 14 -9 7 -12z
m1468 -112 c0 -5 -5 -10 -11 -10 -5 0 -7 5 -4 10 3 6 8 10 11 10 2 0 4 -4 4
-10z m-200 -200 c0 -5 -5 -10 -11 -10 -5 0 -7 5 -4 10 3 6 8 10 11 10 2 0 4
-4 4 -10z m-940 -42 c0 -4 -4 -8 -9 -8 -6 0 -12 4 -15 8 -3 5 1 9 9 9 8 0 15
-4 15 -9z m904 -17 c-2 -3 -12 3 -22 13 -16 17 -16 18 5 5 12 -7 20 -15 17
-18z m-27 -14 c0 -8 -6 -14 -13 -14 -7 0 -10 6 -7 14 3 7 8 13 12 13 4 0 8 -6
8 -13z m-73 -48 c-3 -5 -10 -7 -15 -3 -5 3 -7 10 -3 15 3 5 10 7 15 3 5 -3 7
-10 3 -15z m-678 -25 c2 -12 -1 -13 -12 -3 -7 6 -11 16 -8 21 7 11 17 3 20
-18z m667 -19 c-3 -9 -8 -14 -10 -11 -3 3 -2 9 2 15 9 16 15 13 8 -4z m-23
-29 c0 -2 -8 -10 -17 -17 -16 -13 -17 -12 -4 4 13 16 21 21 21 13z m-569 -19
c-6 -8 -7 -18 -3 -22 4 -5 1 -5 -6 -1 -10 6 -10 11 -1 22 6 8 14 14 16 14 3 0
0 -6 -6 -13z m459 -27 c0 -5 -5 -10 -11 -10 -5 0 -7 5 -4 10 3 6 8 10 11 10 2
0 4 -4 4 -10z m35 -8 c-3 -3 -11 0 -18 7 -9 10 -8 11 6 5 10 -3 15 -9 12 -12z
m-445 -26 c0 -2 -7 -7 -16 -10 -8 -3 -12 -2 -9 4 6 10 25 14 25 6z m34 -60
c-6 -16 -8 -17 -16 -2 -11 19 0 42 13 29 6 -6 7 -18 3 -27z m61 -16 c-3 -5 -1
-10 6 -10 7 0 10 -3 6 -6 -9 -9 -28 6 -22 17 4 5 8 9 11 9 3 0 2 -4 -1 -10z
m214 -36 c3 -4 -2 -4 -11 -1 -10 4 -18 2 -18 -3 0 -6 -4 -10 -8 -10 -5 0 -9 6
-9 14 0 14 33 14 46 0z m-161 -82 c2 -7 -1 -12 -8 -12 -6 0 -9 4 -6 9 4 5 1
12 -4 14 -6 3 -5 4 2 3 6 -1 14 -8 16 -14z m67 -2 c-3 -5 -12 -10 -18 -10 -7
0 -6 4 3 10 19 12 23 12 15 0z"/>
<path d="M2353 2505 c0 -8 4 -15 9 -15 4 0 8 4 8 9 0 6 -4 12 -8 15 -5 3 -9
-1 -9 -9z"/>
<path d="M2246 2381 c-4 -5 -2 -12 3 -15 5 -4 12 -2 15 3 4 5 2 12 -3 15 -5 4
-12 2 -15 -3z"/>
<path d="M2186 2362 c-3 -5 1 -9 9 -9 8 0 12 4 9 9 -3 4 -7 8 -9 8 -2 0 -6 -4
-9 -8z"/>
<path d="M90 2228 c13 -15 40 -19 40 -6 0 6 -6 8 -14 5 -7 -3 -19 -1 -25 4 -8
6 -8 5 -1 -3z"/>
<path d="M308 2203 c7 -3 16 -2 19 1 4 3 -2 6 -13 5 -11 0 -14 -3 -6 -6z"/>
<path d="M1937 2087 c-9 -23 8 -30 24 -10 8 9 9 14 2 10 -6 -4 -13 -2 -15 5
-3 8 -7 6 -11 -5z"/>
<path d="M472 2021 c-11 -7 -11 -9 0 -14 9 -3 15 1 15 9 0 8 -1 14 -1 14 -1 0
-7 -4 -14 -9z"/>
<path d="M488 1972 c15 -16 18 -16 29 -2 6 8 9 17 7 20 -3 2 -9 -2 -13 -9 -6
-9 -11 -10 -15 -2 -4 6 -11 11 -17 11 -5 0 -1 -8 9 -18z"/>
<path d="M525 1961 c-3 -5 -2 -12 3 -15 5 -3 9 1 9 9 0 17 -3 19 -12 6z"/>
<path d="M1816 1953 c-6 -14 -5 -15 5 -6 7 7 10 15 7 18 -3 3 -9 -2 -12 -12z"/>
<path d="M580 1926 c0 -2 7 -7 16 -10 8 -3 12 -2 9 4 -6 10 -25 14 -25 6z"/>
<path d="M1690 1831 c-6 -12 -15 -19 -19 -17 -4 3 -16 -1 -26 -8 -13 -9 -15
-15 -6 -20 6 -4 14 0 17 8 3 9 10 14 14 11 5 -3 11 -1 15 4 3 6 12 8 20 5 8
-4 13 0 11 10 -4 26 -14 29 -26 7z"/>
<path d="M710 1764 c0 -2 9 -8 20 -14 15 -8 18 -8 14 3 -4 11 -34 21 -34 11z"/>
<path d="M760 1700 c-8 -5 -13 -10 -10 -11 3 0 13 -2 22 -4 11 -2 15 2 11 11
-6 16 -4 16 -23 4z"/>
<path d="M1477 1641 c-4 -17 -3 -21 5 -13 5 5 8 16 6 23 -3 8 -7 3 -11 -10z"/>
<path d="M1481 1611 c-7 -5 -12 -14 -10 -20 2 -6 10 -2 17 9 14 22 13 23 -7
11z"/>
<path d="M1443 1581 c0 -11 5 -18 9 -15 4 3 5 11 1 19 -7 21 -12 19 -10 -4z"/>
<path d="M1415 1580 c-3 -5 -1 -10 4 -10 6 0 11 5 11 10 0 6 -2 10 -4 10 -3 0
-8 -4 -11 -10z"/>
<path d="M1151 1326 c-8 -10 -9 -16 -1 -21 5 -3 10 -5 11 -3 4 18 7 38 4 38
-1 0 -8 -6 -14 -14z"/>
<path d="M1200 1334 c0 -2 9 -8 20 -14 11 -6 20 -7 20 -2 0 6 -9 12 -20 15
-11 3 -20 3 -20 1z"/>
</g>
</svg>
